<?xml version="1.0" encoding="UTF-8" standalone="no"?>
<!-- Created with Inkscape (http://www.inkscape.org/) -->

<svg
   width="138.75423mm"
   height="120.77633mm"
   viewBox="0 0 138.75423 120.77633"
   version="1.1"
   id="svg5"
   xml:space="preserve"
   xmlns="http://www.w3.org/2000/svg"
   xmlns:svg="http://www.w3.org/2000/svg"><defs
     id="defs2" /><g
     id="layer1"
     transform="translate(-29.04001,-15.553523)"><g
       id="g348"
       transform="translate(121.33726,-408.98035)"><path
         style="fill:#d4a151;stroke-width:0.264583"
         d="m -40.064358,545.23679 c 3.5546,-2.9891 13.783272,-3.66706 19.507962,-6.69995 21.28243004,-7.61544 44.297161,-14.0336 67.013367,-9.88493 -1.787163,2.43769 -13.628733,0.74636 -19.02528,2.29723 -19.3354742,2.13271 -36.8500611,11.98418 -56.139681,14.12777 -3.777872,0.2209 -7.574662,0.30782 -11.356368,0.15988 z m 33.5514005,-0.51528 c -4.3975955,-1.33308 6.8518881,-3.05752 8.7048965,-4.30376 13.082821,-4.64254 27.069429,-8.24005 40.986754,-6.93242 -7.974047,3.23592 -16.857783,4.49714 -25.067376,7.37484 -7.934808,2.70475 -16.2111187,4.29355 -24.6242745,3.86134 z m -43.7885395,-2.91757 c -12.842024,-2.08018 -25.461398,-5.58321 -38.00079,-8.96387 13.384098,-2.12223 27.296169,0.44524 40.218326,4.41462 3.223263,1.099 16.485087,3.30006 6.239007,4.27728 -2.810032,0.21666 -5.638067,0.39927 -8.456543,0.27197 z m 15.087737,-4.35816 c -13.934962,-3.32612 -27.638078,-8.46467 -42.174597,-8.33775 -4.377054,-0.80679 -12.708745,1.27863 -14.908893,-0.90942 4.430366,-3.34161 18.868425,0.64926 14.652972,-7.55626 -2.039915,-6.01422 3.439039,-9.41276 3.65574,-14.12151 5.667085,-0.9409 0.692166,5.15547 4.874462,7.00091 0.293047,7.1827 3.900499,2.42597 3.042438,-1.4914 5.845573,-2.68247 3.093308,7.09868 6.779774,9.78584 -5.196641,-0.0131 -0.219421,7.10407 4.090687,5.13556 11.425262,1.96004 22.680887,5.26671 33.513577,9.24935 -2.970678,2.95834 -9.503675,1.58994 -13.52616,1.24468 z m -32.472718,-14.2384 c -0.597397,-7.8075 -3.077068,5.25968 -0.05749,1.21784 l 0.05749,-1.21785 z m -4.97636,1.36446 c -0.798183,-4.07594 -0.990168,2.9369 0,0 z m 51.73009,9.40091 c -8.611684,-2.47426 -17.268652,-4.89538 -25.975716,-6.94124 5.670167,-4.24698 13.648606,-4.16441 20.022591,-6.3464 5.209609,-4.50756 10.003256,-10.68272 16.443625,-13.08178 5.7687815,1.51339 9.52477299,0.59982 13.9749629,-0.42784 0.7065926,2.02086 1.8278851,4.7104 4.1625279,6.19251 2.2482825,2.6999 10.9874332,8.47602 3.4555182,8.09 -1.1532244,3.58295 8.032306,6.20068 0.03062,6.34265 -10.42627838,1.26549 -20.4398638,4.81481 -30.761537,6.40563 l -1.352598,-0.23353 z m 7.011458,-11.01056 c -1.221108,-7.04114 8.1739348,-4.2468 5.3076545,1.695 2.0646859,5.53655 8.461476,0.32265 6.0694278,-4.56529 -1.2186135,-3.51441 -5.696651,-5.58246 -8.2877483,-8.42266 -3.001039,0.25813 -5.883523,4.85011 -8.801187,6.81887 -0.6223,3.09696 -1.720259,9.9387 3.670976,8.05292 2.93453,0.76496 1.680077,-1.73342 2.040877,-3.57884 z m -37.923609,3.2192 c -0.881433,-9.97431 10.145474,-17.69798 19.483924,-15.039 8.204572,1.39591 2.001296,12.72992 -4.759461,10.51872 -5.029825,0.99927 -9.646501,4.14234 -14.724463,4.52028 z m 68.460641,-0.1833 c 1.961808,-5.81212 -0.739044,-15.27377 4.829824,-17.35255 1.760989,0.77583 0.698871,9.12385 3.973589,4.88382 1.213975,-4.23681 2.565785,-6.05413 1.618665,-9.65057 5.038556,-2.77739 2.708924,5.06687 6.97782,6.04829 0.698316,4.28361 2.055326,17.02443 -3.102334,15.85681 0.22857,-3.75963 -0.813598,-6.78905 -1.606869,-0.71378 -2.696235,4.06817 -4.574819,-2.14941 -2.560356,-5.12996 2.664165,-7.50736 -5.585416,-0.81259 -1.941828,3.23513 2.575378,5.22135 -5.775516,2.78806 -8.188511,2.82281 z m 21.850465,-5.56497 c 3.847044,-13.9575 4.302253,-29.04871 -0.913505,-42.72923 -6.865603,-19.52885 -23.634165,-34.90678 -43.4211742,-40.7344 -7.4510798,-3.82579 9.5238087,0.72831 12.2819139,2.57743 21.9701243,9.46729 37.7973023,31.99527 38.0692183,56.10264 -0.146323,8.57743 -1.347499,17.79052 -5.934829,25.11465 z m -123.735022,-2.21128 c -9.785896,-22.9089 -2.416422,-51.13493 16.218427,-67.35844 8.912743,-7.97443 20.090777,-14.0111 32.046718,-15.49621 -5.123226,3.2795 -14.355468,5.31655 -20.099576,9.91647 -21.737712,13.75971 -33.62326,41.26284 -28.202071,66.48946 -0.184486,0.60988 3.005383,11.65545 0.0365,6.44872 z m 57.327098,0.26458 c 1.236978,-6.42385 2.113473,-12.95747 1.717305,-19.51302 -0.897993,3.86784 -9.409053,10.1725 -5.488895,2.04443 0.886166,1.48482 -10.338649,10.88316 -5.861862,3.36844 2.460185,-5.97946 -8.209706,9.34024 -10.20235,3.46447 3.323233,-2.64934 3.345439,-5.87331 -0.155523,-1.40633 -4.631833,4.6477 -4.247297,-0.65962 -3.402806,-1.05726 -2.835166,3.49815 -13.987053,0.41557 -5.340774,-1.31217 1.613155,-4.06178 8.991845,-4.94167 13.651171,-6.67549 6.155172,-2.00615 16.488691,-3.85033 16.66875,-11.78755 -3.105651,4.08948 -5.68196,2.6211 -8.566121,6.80308 -0.94319,-2.81973 -9.139528,7.52426 -6.912512,1.01994 3.385691,-5.04503 -7.63696,8.35537 -5.114684,1.12088 3.499758,-6.49038 -7.073229,8.96989 -9.337483,3.30664 8.526933,-8.77662 -10.118331,7.146 -7.706178,-0.0501 9.681314,-5.24942 -10.866449,3.43786 -5.560948,-2.47444 1.27345,-0.33662 -9.053729,-1.18637 -2.408858,-3.25169 3.727163,-0.63552 5.679746,-0.32587 3.349642,-3.22428 3.679692,-0.76759 15.850637,0.002 5.680278,-2.55811 -1.694988,-4.34623 9.648289,0.89095 10.929106,-3.96701 5.570432,0.18925 14.877213,0.31934 14.737349,-6.12107 -0.805842,2.6909 -13.697227,7.24075 -6.645463,1.12236 2.996696,-4.87376 -8.532216,7.67417 -10.54793,2.58813 7.683283,-5.56604 -6.31942,3.12015 -5.430152,-2.7915 -8.473273,-4.03064 9.743067,-1.7969 3.298103,-4.67508 2.422445,-3.75699 13.183099,-0.0997 11.209749,-4.98408 3.032599,-0.13205 15.302277,-0.94779 11.796465,-4.7528 -1.978579,3.3364 -11.848646,4.85032 -5.058624,0.34002 1.686244,-2.38877 -15.13637,5.68852 -12.153714,-0.1229 4.293905,-0.37051 3.636329,-0.34882 2.007387,-2.61613 4.189674,-0.0471 -5.287668,-4.37665 1.701463,-3.18323 4.331907,0.21471 7.616818,-0.62108 8.972609,-2.70231 3.417622,0.5381 13.231204,-2.03588 5.734275,-1.97841 3.207734,-3.06179 -11.13853,4.59188 -5.028854,-0.92496 -1.612626,1.26528 -10.702622,-1.23423 -3.662572,-2.61912 -2.527139,-4.37361 9.475108,-0.42218 3.340616,-4.17132 1.566497,-0.97998 12.91123,-5.01002 8.890021,-4.88996 -7.441046,1.76523 0.475596,-3.84649 0.93196,-4.77805 -2.860025,-1.86363 4.014332,-3.1073 2.657798,-6.0129 0.539894,-3.45208 3.213984,-7.31939 4.188563,-1.64679 1.933226,3.00228 2.297336,5.35048 5.424368,8.19433 -6.29517,2.35139 5.070219,3.61108 3.654489,6.58774 8.6816932,1.30387 -0.788295,3.09126 -0.07726,2.77077 3.3289615,-0.28989 10.9754612,1.6246 3.6244406,3.4344 -6.3705066,6.28072 13.3209781,0.30861 6.0274954,5.721 -3.0911487,0.71109 8.9586705,2.18452 1.2959803,3.39326 -4.4608364,-0.23257 -3.2622754,-0.36828 -1.5796274,2.01588 -4.1149952,2.81758 -11.0856329,-5.90582 -8.6716869,0.71286 4.2965438,0.6651 7.0248722,4.05848 11.79680113,3.07315 3.71611017,0.52993 6.67511367,1.56217 5.12742507,3.45971 6.8013868,-1.41619 6.5934358,1.70878 3.215509,4.19877 -2.4064026,2.75369 -10.1312874,-2.39086 -4.3274129,2.14695 -3.66514498,3.96408 -11.7627667,-7.72346 -8.4210914,0.0831 -2.9680943,1.13481 -10.0819349,-6.46798 -4.0168745,-0.75202 4.8137692,3.72916 12.9775039,0.91923 17.1955779,4.07261 -7.6437408,4.30041 13.7729377,-1.33415 5.7580117,4.22552 3.693205,-1.1807 12.364955,0.41941 4.322218,2.81759 -0.493248,0.31642 4.346136,2.88404 -0.967818,2.84372 -3.293631,0.15268 -10.2918609,-2.53338 -3.716983,0.89056 2.114029,4.83452 -10.0770421,-0.34634 -11.7870347,-3.83753 -2.63668263,-1.98125 6.6569074,7.96094 -0.7720347,4.13379 -3.5782627,-1.60985 -9.3745595,-10.35916 -4.9655738,-1.99026 -3.8802365,2.56977 -8.0382928,-8.70094 -9.8181198,-3.92039 -2.508037,-2.95322 -7.701257,-8.49494 -3.864911,-1.21086 5.618782,5.21078 13.5846967,7.57726 20.9686314,9.10158 5.3231301,2.44619 15.3401836,1.24747 18.1592466,4.68853 -5.499029,2.04819 12.250672,-0.0481 3.489798,3.94675 -3.335079,1.98636 -16.8831032,-2.50301 -7.817478,2.37714 7.736999,4.12566 -7.482858,3.47132 -9.2872682,0.0166 -3.0807919,-2.84775 -5.9298602,-3.68933 -1.7443646,0.77843 7.2026908,6.96188 -5.9505113,2.46412 -7.25586598,-2.04062 -5.56349562,-8.05487 3.91142818,8.44243 -3.52019422,2.42986 -2.7123594,-1.24352 -7.249919,-11.5146 -4.4525924,-3.202 -2.8894916,5.57676 -6.6314406,-14.58275 -5.7847196,-3.49437 -3.778745,0.36733 -4.924134,-12.03765 -4.42351,-2.9532 1.311051,4.92031 9.2822452,8.21528 9.5086882,12.16041 -3.5431022,0.10714 -5.2877942,-3.15173 -4.4438292,1.03978 -3.275237,0.61329 -6.060474,-7.74036 -5.036747,-0.75628 3.248789,7.13054 -5.607657,11.42011 -9.691991,13.91244 z m -3.971239,-41.09881 c 5.561609,0.90138 8.002271,-11.784 2.833192,-3.29402 -1.505131,-0.37809 -9.570751,6.19242 -2.833192,3.29402 z m 19.049999,-8.08594 c -1.176268,-3.26815 -4.65111,-0.77674 -5.968006,-5.44091 -0.705985,3.46918 3.053984,5.63341 5.968006,5.44091 z m -15.844525,-7.005 c 3.822526,-0.98212 4.553489,-8.09588 1.107296,-1.90806 -1.695432,1.17533 -5.343329,4.46213 -1.107296,1.90806 z m 16.109108,-12.66126 c -2.693247,-2.41628 -2.773661,-2.72397 -4.353879,-0.9708 -5.767088,-3.4304 2.183471,3.26805 4.353879,0.9708 z m -7.153264,-9.73023 c -1.301231,-2.66114 -1.558577,-0.38236 0,0 z"
         id="path356" /><path
         style="fill:#927158;stroke-width:0.264583"
         d="m -39.982747,544.90889 c 5.439058,-1.94794 13.982552,-3.71783 20.314928,-6.35923 21.0164442,-7.60093 43.748619,-13.61892 66.174245,-9.5525 -4.767014,1.2185 -13.589306,0.45938 -19.765515,1.75398 -22.7566275,2.58788 -43.342403,16.21298 -66.723658,14.15775 z m 7.276041,-7.18813 c -13.798733,-2.45707 -26.981289,-8.29102 -41.183842,-8.55863 -5.899046,-0.90676 -13.872665,0.66433 -18.54293,-0.89292 4.420993,-3.42333 19.164246,0.87585 14.898207,-7.73725 -2.275514,-4.81274 3.551415,-9.09773 2.881221,-13.25425 4.832752,-3.67841 2.537757,3.54037 4.316531,4.36301 2.410088,2.78266 1.348822,10.96357 4.788737,3.80466 -2.620099,-6.32368 5.517352,-3.40817 3.251278,0.66435 1.714285,2.25665 4.575988,6.60485 0.781749,6.06029 -0.275553,8.38443 13.197036,3.73881 18.416991,7.43659 6.493767,2.36772 16.588937,3.67747 21.042507,7.23184 -3.359049,1.22264 -7.125326,1.17093 -10.650449,0.88231 z m -39.793821,-12.52588 c 0.118098,-6.99179 -2.120104,1.96111 0,0 z m 4.868823,-2.27669 c -0.806337,-7.6292 -3.049789,5.5795 0,1.76234 z m 44.979164,10.45632 c -8.000853,-2.3682 -16.142996,-4.40012 -24.159323,-6.59302 6.573463,-4.87518 16.408927,-2.40869 21.994392,-8.14226 4.709932,-3.28398 8.680887,-9.16878 13.895557,-11.03352 3.6225756,-0.16783 9.1785678,2.95781 11.42031659,0.186 4.94405451,-2.05582 6.04833331,7.52476 10.91829341,9.40122 3.757982,2.78181 3.524847,4.25727 -0.62024,4.78787 -0.584757,3.2589 7.959874,5.4684 0.770464,5.66967 -10.2871543,1.41513 -20.2896324,4.25904 -30.374083,6.62444 -1.299163,-0.22209 -2.570698,-0.57192 -3.845377,-0.9004 z m 8.937185,-10.364 c -1.121552,-7.06364 7.8489376,-3.96333 4.8683231,1.93718 2.7194977,5.06937 8.96098691,0.13154 6.5674076,-5.01939 -2.7318285,-3.1011 -8.0829937,-11.56841 -12.0610627,-6.21714 -1.747908,2.43088 -6.236904,3.64885 -5.930603,7.01247 -1.740469,5.18886 2.875275,7.27215 6.491639,5.32478 0.02143,-1.01264 0.04286,-2.02527 0.0643,-3.0379 z m 30.548835,3.14546 c 0.439731,-4.61137 1.060656,-10.44526 2.086251,-13.97194 -1.934854,-5.88051 6.431347,-2.71846 3.142532,0.94481 3.418033,5.17519 5.415864,-5.00871 5.317784,-6.1404 -3.421337,-4.88021 5.846121,-4.65903 3.587425,0.33548 6.277722,3.5324 3.651493,14.83619 1.216303,19.03506 -2.70474,-0.60692 -0.602375,-9.88982 -2.591412,-2.97154 -1.176164,6.37815 -5.417874,0.64575 -2.790462,-3.25298 2.951265,-7.28828 -5.681608,-1.82436 -2.230925,2.44341 2.662788,5.55261 -4.76963,3.30083 -7.737496,3.5781 z m -44.777686,-7.56125 c 0.928577,-5.96319 3.167293,-14.76495 1.446674,-19.23164 -0.976038,3.5712 -9.063048,9.22938 -4.994708,1.75915 0.572356,-1.62842 -7.509463,10.34895 -6.877257,4.57802 3.402421,-4.42918 0.569089,-4.29694 -1.820222,-0.27941 -2.208389,3.52015 -11.642242,5.50691 -5.200935,-0.13911 2.943505,-5.01479 -9.208436,7.63821 -5.986381,1.13862 4.117672,-3.17257 -11.818988,3.697 -7.614188,-1.59376 4.598179,-2.43416 9.07289,-6.23049 15.965769,-7.31764 6.278761,-2.0643 15.988216,-3.61857 16.933327,-11.5638 -0.777774,-0.187 -4.702984,4.31115 -5.324673,2.31263 -1.079558,3.83348 -3.908181,3.8337 -4.531334,2.92236 -1.725593,3.1712 -9.459888,6.91144 -4.860052,0.57169 0.50621,-0.54788 -9.792303,9.58041 -5.224845,1.52016 1.30788,-4.42946 -4.779016,6.35274 -8.177838,5.46512 -5.501574,1.45989 4.346626,-7.35851 -1.178194,-3.19396 -1.829248,3.58397 -14.122735,5.74812 -6.474626,1.0078 4.689912,-3.28128 -14.41465,4.52728 -7.140941,-1.69736 -5.37921,1.00715 -6.610043,-3.15293 -0.830891,-3.03484 3.94886,-0.22101 3.269662,-0.65257 1.178224,-2.8512 3.191525,-0.36213 16.977123,-0.30689 6.45391,-2.35409 -3.825508,-4.46553 9.348738,0.43971 10.305361,-4.15216 4.156563,-0.58713 8.72579,0.90892 12.362896,-1.77476 4.08697,-0.11647 0.80411,-4.65134 2.010604,-4.99648 -1.075936,4.50862 -13.428141,6.77953 -5.938666,1.34295 2.345048,-4.85499 -8.717391,7.72451 -10.763827,2.77841 6.910438,-4.64796 -6.859263,2.25667 -6.300611,-3.07835 -6.287353,-4.52101 12.24602,-0.62092 4.008421,-4.61167 3.141259,-2.92046 13.414895,0.0657 11.059946,-4.5092 7.43055,-0.0502 16.30759,-2.71357 20.319522,-9.14281 -0.01536,-2.38994 -7.375798,7.89059 -8.317787,3.94679 -2.084036,3.59213 -12.118291,5.05465 -4.716601,0.31863 -0.03417,-2.0438 -13.284148,5.61666 -12.782061,0.47678 3.8056,-0.43303 5.090053,-0.68382 1.977606,-2.69291 6.899833,0.005 -5.980188,-3.84296 1.999204,-3.24701 4.769252,0.59564 7.388729,-1.28292 9.537069,-2.6361 3.180288,1.27898 14.003964,-4.36096 5.333625,-1.6307 3.649075,-6.03277 -8.852795,4.59479 -6.172226,-0.72126 4.717704,-1.85476 -10.602793,0.0725 -3.586932,-2.91957 0.785865,-2.09681 2.689641,-2.98197 6.597224,-2.9151 -8.30192,-2.52625 11.669007,-5.39634 6.827548,-6.88994 -7.092036,2.02793 -1.468663,-2.80218 1.292612,-4.52858 -4.168537,-1.35287 3.404943,-2.98151 1.905619,-5.71178 0.657074,-3.28656 3.029287,-7.65704 4.134955,-1.74382 2.108802,2.94574 2.212979,5.25143 5.552731,8.16414 -6.629652,1.73621 3.45934,3.44186 3.068047,5.59522 -1.302424,0.87812 8.6571753,3.01306 2.174721,3.40916 -9.851789,-0.58537 12.1251151,0.61643 2.4123631,3.29678 -2.4861611,1.53391 -2.7123861,4.73321 2.5378091,3.57287 4.80428068,-1.13162 6.3753434,2.04853 1.183977,3.21812 4.39326732,-0.78054 7.971612,3.14218 1.428278,2.61387 -6.4716749,-1.88128 4.4251213,3.50008 -3.0540673,2.33446 -3.5863507,-0.23008 -7.7155619,-5.53384 -6.0647509,-0.0883 2.4108762,0.53885 6.7678518,4.51199 10.90499093,3.44754 2.41423727,1.45976 9.93995837,0.43481 5.40411307,3.74039 3.7036734,-1.19903 11.376572,0.94795 3.8212175,2.89058 1.5752865,5.23199 -12.2167035,-2.30586 -4.0568788,3.29589 -3.76976469,3.79203 -12.8105439,-8.79324 -8.0681244,-0.0233 -2.6841527,1.2093 -10.5929313,-6.31131 -4.3256123,-0.51064 4.386498,3.7357 14.60259,0.82394 16.7645844,4.38567 -8.24475217,3.92091 15.3013416,-1.71077 5.7534026,3.60039 1.329252,0.25023 13.809567,-0.39242 5.307773,2.85131 -4.559384,0.24341 5.753453,2.48427 -1.547133,2.97385 -2.668162,0.42601 -11.040986,-3.27144 -4.465119,0.59005 5.752941,4.43491 -7.7630312,1.45882 -8.7302772,-1.78686 -4.12838915,-4.74572 -3.5770359,-1.3767 -0.099549,1.76567 -1.1331694,6.08702 -13.7789562,-12.33524 -8.1850149,-2.29469 -0.431554,5.47536 -8.6697629,-7.78028 -8.3610389,-3.36773 -2.218358,1.85966 -7.867502,-10.14137 -5.77304,-2.1196 4.107129,6.38758 12.5743532,7.64037 19.2353939,10.13579 6.729917,1.68563 15.5542511,2.43112 20.9923841,4.7043 -7.652097,2.4406 13.158938,0.44129 2.722676,4.21976 -4.212514,1.43713 -16.5087049,-2.34044 -6.889028,2.66814 6.072918,3.91768 -7.456547,2.87933 -9.2810377,-0.19086 -2.4576789,-2.14145 -7.0084642,-5.13178 -2.7708994,0.18715 5.0604111,3.16891 1.9054967,6.53362 -2.3355124,2.54604 -3.0663174,-1.82555 -8.8501392,-11.2933 -4.86218777,-2.43736 -0.43305853,8.14183 -11.46283073,-13.02097 -7.75671303,-3.19705 -0.5720105,7.95779 -7.1292127,-13.86852 -5.2889457,-3.44106 -2.814218,3.02188 -5.288364,-11.87897 -4.837542,-2.97452 0.490808,5.59487 9.6057787,8.60918 9.8185073,12.76177 -4.4323963,-0.53909 -4.7587033,-2.51038 -4.8821633,1.07936 -3.562422,-1.2764 -5.801518,-7.48099 -4.665622,-0.11294 3.10306,6.85526 -5.379921,10.39149 -9.617032,13.51653 z m -4.138025,-41.04779 c 5.255046,1.17634 8.719427,-11.50893 3.246151,-4.03967 -2.472568,0.70366 -4.083944,2.04371 -6.421151,4.95923 1.072773,-0.25492 2.120884,-0.59927 3.175,-0.91956 z m 19.436005,-8.27301 c -1.427532,-4.04433 -4.568478,-0.30811 -6.374999,-5.84145 -0.863336,3.54423 3.203751,6.56919 6.374999,5.84145 z m 0.841602,-19.50764 c -2.472018,-0.97003 -4.675641,-4.8988 -4.741124,-1.13467 -6.131457,-3.66714 0.655035,3.07084 4.099923,1.22253 z m -13.753025,-7.4201 c 0.652543,-2.17798 -1.888897,1.73962 0,0 z m 5.72807,-2.82962 c -3.936126,-5.3521 0.664157,3.10773 0,0 z"
         id="path354" /><path
         style="fill:#5b4938;stroke-width:0.264583"
         d="m -31.251498,537.57603 c -14.110476,-2.03996 -27.425058,-8.3298 -41.850268,-8.67089 -5.566174,-0.77888 -15.132912,0.27765 -18.323258,-0.68553 4.748895,-3.05001 15.686086,1.33313 15.331532,-6.40188 -2.459364,-2.19643 -1.684808,-6.93007 0.205727,-9.89843 3.13677,-0.10126 0.09908,-8.41211 4.921148,-4.07444 -2.532086,3.81031 5.952822,9.41282 1.034282,14.18968 -0.477795,6.18506 4.684813,3.12807 2.620437,-1.46449 0.376369,-3.79256 2.190939,-5.04475 1.806195,-8.49344 5.310241,-1.57022 0.451707,4.56453 4.091696,5.95896 1.475958,2.16102 2.411838,4.25448 -0.316784,3.41063 -1.101906,9.57192 13.692817,4.82208 19.421893,8.69316 6.79422,1.85202 13.59998,3.84675 20.185528,6.28799 -2.71096,1.32881 -6.138396,1.22045 -9.128128,1.14868 z m -41.068218,-13.27058 c -1.145519,-6.78464 -1.771551,5.35781 0,0 z m 50.196343,8.90766 c -7.934487,-2.29548 -15.976215,-4.44937 -23.904479,-6.58517 6.514036,-3.30772 13.891158,-3.88969 20.86177,-5.6017 1.158658,-4.21978 9.624505,-10.45248 14.589111,-13.04544 5.3559602,1.06654 10.17627941,1.6452 14.2504714,-0.2761 0.5730133,4.6889 5.5584926,7.10088 8.3887136,10.54504 6.423426,3.3877 -6.1158073,2.52304 0.210244,6.85544 5.061039,3.33215 -7.7408131,2.40551 -10.3307902,3.94204 -8.0761637,0.71705 -16.0429408,5.89754 -24.0650408,4.16594 z m 8.731249,-10.16263 c -0.753075,-3.43188 0.951753,-4.3165 4.1010417,-3.70416 -0.6807859,4.96908 0.8929148,9.71344 6.9585416,7.22315 0.3216399,-3.57743 1.5318338,-8.07446 -2.4490271,-10.02801 -3.6517013,-4.70128 -8.2193652,-7.2559 -11.9982562,-1.1124 -2.551187,1.82041 -4.626349,3.85646 -3.756049,7.21677 -3.017453,5.01339 7.967302,6.20681 7.090292,1.90146 l 0.05346,-1.49681 z m 30.551688,2.72122 c 0.574996,-4.45135 0.721909,-10.60653 2.496967,-13.33584 -3.692065,-5.17329 6.755655,-3.12336 1.431129,0.89276 4.300503,5.97667 6.79756,-4.53718 6.803038,-6.33385 -3.993476,-4.34375 5.799256,-4.33124 2.173697,0.46603 7.33154,2.41153 3.227103,11.52457 3.320141,17.17475 -2.457865,4.1593 -2.043578,-3.43456 -2.721874,-5.16547 -0.323196,2.24553 -4.022125,10.43616 -4.039057,4.11569 0.802464,-3.76087 2.363685,-11.40985 -3.050439,-5.6127 1.128279,4.81987 2.191775,9.66869 -4.52114,8.09803 -0.47693,-0.25255 -1.501334,0.31879 -1.892462,-0.2994 z m -44.47811,-8.3237 c 0.67903,-5.61036 3.134861,-15.0173 0.711255,-18.49857 -1.129063,3.15478 -8.000992,9.48722 -4.688188,2.10194 -0.176972,-3.41246 -5.911043,9.48853 -6.958934,5.05809 3.485696,-3.3205 1.429495,-7.05479 -1.153134,-1.82607 -2.342917,3.62831 -12.078598,7.0105 -5.266387,0.36669 1.398045,-5.23636 -9.41461,8.01657 -6.15673,1.65647 4.034511,-4.97985 -9.427723,4.06513 -8.582728,-0.992 5.069435,-1.67371 7.215802,-5.86796 13.825739,-6.71233 6.941814,-2.5258 16.648699,-3.26134 19.643131,-11.11446 1.622524,-6.99755 -5.867927,5.8661 -4.485363,-1.03569 -2.38036,3.81431 -4.575511,6.54472 -4.978231,3.51032 -1.121961,3.15383 -9.901415,8.27935 -4.988096,1.67404 0.869834,-3.92979 -9.777808,10.59968 -5.332724,1.74859 1.886639,-7.25685 -5.252154,6.93338 -9.401205,5.19134 -1.132141,-0.91354 5.414635,-8.35655 -0.425007,-3.29941 -2.401394,3.48205 -13.994002,6.02953 -5.207313,0.7515 1.938303,-3.94108 -8.462051,4.2043 -9.780047,0.30555 8.46184,-2.83666 -9.634054,-1.68613 -0.18902,-4.07329 3.559357,-0.26402 7.300311,-0.90466 2.410231,-3.16362 2.846634,0.31075 17.258121,-0.65041 7.496708,-2.43381 -7.656703,-4.06877 9.165482,1.22612 7.875383,-3.59618 8.934609,0.67517 16.803316,-3.33189 24.765068,-6.83204 3.931701,-2.02618 2.949996,-10.03756 -0.672172,-3.11296 -2.113061,3.43113 -1.105372,-3.64123 -3.303158,1.50069 -1.747306,3.46725 -8.138242,5.97922 -4.303949,0.13491 -0.610439,0.8445 -10.416561,8.69277 -8.45465,4.13717 4.207324,-2.8693 2.500053,-5.63004 -0.853331,-1.6471 -2.622028,2.95436 -12.316301,5.01244 -5.191548,0.12605 -3.225287,0.62537 -8.994758,2.88848 -8.57509,-0.75717 -8.238274,-3.47968 13.250168,-0.71507 3.283423,-4.50952 2.341089,-1.86774 12.825256,-0.54845 11.656848,-2.99798 -2.445862,-2.69078 9.785224,-0.65838 11.991636,-4.2515 3.252387,-0.15301 10.748366,-7.77422 6.674993,-7.48943 -0.648203,2.3409 -8.156347,8.65913 -6.248601,3.37343 -1.946002,3.62941 -13.28166,7.51797 -5.352247,1.60667 -0.01486,-2.44189 -14.42377,5.40472 -12.835652,1.03603 2.887505,0.13665 6.76191,-1.84648 1.759436,-2.35949 6.960573,-1.84398 1.224686,-0.74997 -0.819318,-3.51197 5.230172,0.7592 10.299207,-0.86749 12.289049,-2.59733 3.684909,2.27441 14.647873,-6.46224 6.023406,-2.25401 -0.738958,-1.29112 0.731758,-4.64615 -3.045948,-0.72809 -3.258753,2.39478 -6.395976,1.75228 -2.065486,-1.14983 -3.466455,1.46856 -10.840101,-0.24977 -4.02444,-1.79418 -3.230477,-3.30442 11.33465,-1.52872 2.931624,-4.11216 1.189343,-0.29014 13.980891,-5.54471 9.003621,-5.6992 -9.343017,2.35199 5.282431,-4.0851 -0.112226,-5.10206 4.843832,-0.60039 3.134295,-9.76014 6.309231,-8.68572 2.226711,4.46847 2.435779,7.0237 6.296153,10.37788 -8.731795,1.01166 6.777664,4.24685 2.264303,6.53531 3.8306784,-0.44805 7.8352712,3.57164 1.49839,1.70263 -5.408391,0.34988 5.3703187,2.08727 6.6080662,2.5694 -4.6067212,0.7985 -3.435202,4.97155 -8.5531002,1.41352 -2.035577,-2.48812 -3.117123,-2.29369 -2.506184,0.41308 -6.528531,-5.64886 -1.223561,3.95608 3.32057,1.76586 3.3335194,2.45563 9.4366922,0.97938 12.21785088,2.66588 -4.06221508,1.19629 -5.13238808,2.65939 -0.11634778,2.80507 7.2460141,2.65963 -11.6197181,-0.31467 -2.3352029,3.16599 -2.0281016,3.8773 -11.9856382,-6.71595 -8.5527282,0.54565 -5.290538,0.31555 5.8893312,1.89595 7.0908879,4.02093 3.4849385,0.24717 8.4582088,0.43 10.5055187,2.12314 -7.9222745,3.05836 13.1212624,0.42841 2.6180838,3.85307 -0.476019,1.51569 -0.7723573,3.39091 -5.0196271,1.42789 -7.0787333,-2.35348 5.0697017,3.87374 -1.9228625,2.46702 -3.7671602,-1.05862 -10.1849062,-7.9682 -5.4677936,-0.41308 -4.2699384,-0.26527 -8.7222812,-4.65875 -11.0806022,-7.27041 -0.07599,5.37119 -5.88702,-8.2114 -3.822988,0.40624 4.172315,3.85169 10.4744975,7.15032 16.2740825,8.71298 5.0352933,0.64111 14.1022135,0.54331 8.8292668,3.92263 3.6881655,0.83803 14.7856727,-2.31537 7.7128977,2.48649 2.9119,-0.2814 13.529684,-0.46 5.352268,2.04156 -5.916505,0.69903 6.548566,2.71888 -1.603667,2.86246 -3.467742,-0.26335 -11.2513487,-3.14292 -3.978577,1.17333 3.884284,4.62632 -10.2565438,-1.24358 -11.4985888,-5.0387 -3.1514331,-0.36468 7.1184184,8.67957 -0.2055137,4.92536 -2.61678797,-1.08221 -9.6329208,-11.04649 -5.9237517,-2.97284 1.1066691,6.07726 -8.5108988,-8.92757 -8.6885578,-2.87695 -1.750284,-2.5299 -7.776214,-9.04585 -4.918554,-1.75339 4.270062,6.20132 12.6075204,7.7641 19.3380574,10.08874 6.5206276,1.63797 15.5267986,2.7497 20.6721496,4.39073 -9.364005,3.09511 13.052166,0.50607 3.051415,3.9516 -2.676668,2.27037 -16.2439709,-3.4467 -9.238839,2.05589 3.51607,0.93161 6.547546,3.94587 0.514406,3.20319 -4.642977,0.81061 -9.7340377,-6.29436 -12.4078493,-5.38382 1.4527935,2.83376 8.7189393,9.8109 1.0408843,6.03853 -2.9996419,-1.00849 -10.0775096,-12.60432 -6.8310832,-3.98347 1.84399086,8.43736 -7.8387443,-7.01471 -8.0904737,-5.2676 1.6546393,3.4973 1.1664615,7.29716 -1.6515261,1.94264 -0.836043,-3.60991 -3.916903,-9.16165 -2.781053,-1.88995 -3.045761,-0.17437 -4.78549,-12.4432 -4.80415,-3.79886 -0.201622,5.71569 9.7728125,10.05341 9.5558456,13.06692 -2.9111766,-0.47612 -7.3041306,-4.0455 -3.9362606,1.0055 -3.600303,-0.0929 -6.465014,-8.95211 -5.401377,-0.65598 1.21782,4.10402 0.859458,7.5844 -3.132296,9.54242 -1.62851,0.91345 -5.244759,5.28154 -5.515116,3.83456 l 0.02373,-0.14088 z m 11.545172,-59.59354 c -2.856395,-5.92796 -3.680723,-0.64585 0,0 z m -9.518313,-15.37899 c 1.677086,-4.71373 -3.617374,3.35187 0,0 z m 6.343313,-2.14489 c -2.958503,-6.2709 -4.35374,-0.22306 0,0 z"
         id="path352" /><path
         style="fill:#345128;stroke-width:0.264583"
         d="m -33.235873,537.20629 c -13.709245,-2.72914 -26.940493,-8.2499 -41.102853,-8.5321 -5.738396,-0.38193 -11.491457,-0.37553 -17.237769,-0.22773 4.953426,-3.00696 15.71579,1.15726 15.627077,-6.43264 -3.504265,-3.76604 0.188307,-9.6553 1.988915,-12.2256 -1.294295,-5.7401 5.298326,-1.3872 1.749987,1.37992 7.674104,3.10822 -0.852163,12.20861 4.359105,14.7928 1.213898,-2.68131 0.914396,-9.6429 2.600956,-11.24479 -3.04445,-4.62673 6.269438,-2.06837 1.058334,0.85294 3.082645,1.85728 5.682775,6.28576 2.18672,6.36079 -0.38375,9.16746 13.8855,4.49047 19.772454,8.36558 5.178706,1.99401 17.652681,4.04159 18.654098,6.62967 -3.1813,0.49931 -6.451987,0.59793 -9.657024,0.28116 z M -72.145046,525.7149 c 1.344946,-6.35257 -4.299727,-2.24151 -0.627428,0.35977 l 0.627455,-0.35981 z m 48.831048,7.01224 c -7.445191,-2.14356 -14.93821,-4.16998 -22.424352,-6.11672 6.17422,-3.65348 15.485824,-3.25761 20.814807,-5.95772 0.838751,-3.62508 8.629311,-8.16132 12.381,-11.99672 3.9177254,-1.74122 9.2285659,1.79821 13.31165545,0.45305 2.90216225,-4.02985 5.43821615,6.16583 9.39104355,7.38132 3.822819,2.9293 4.298316,4.3614 0.392515,4.88518 -1.6807947,3.83308 7.085534,5.57592 0.348281,5.89373 -10.06867037,1.44321 -19.863134,4.26514 -29.764337,6.47767 -1.507208,-0.22992 -2.978109,-0.63581 -4.450613,-1.01979 z m 9.657291,-5.83472 c -0.395797,-3.08676 1.072623,-11.47215 4.4586345,-5.92747 -2.3792295,5.56753 3.6366696,8.3369 7.1074294,5.16264 -0.2231465,-3.52824 1.47241885,-8.02578 -2.6963596,-9.81671 -3.7678327,-4.70343 -8.2878943,-6.96614 -12.1678353,-0.9485 -6.240273,3.03757 -5.468074,15.66011 3.29813,11.53004 z m 30.791942,-1.47267 c 1.566426,-4.16464 -0.59144,-16.19415 7.069118,-9.96111 2.547769,-1.63451 3.019835,-7.01676 4.406125,-8.29658 -4.947994,-3.74029 4.587233,-4.68162 1.29506,0.38278 7.295067,2.44499 3.125059,11.59641 3.308472,17.19523 -2.437401,4.04404 -1.349942,-4.94089 -2.680573,-5.56679 -0.379616,2.4938 -3.647176,10.87081 -3.696161,3.76122 1.027186,-3.88581 2.111891,-10.74769 -3.262518,-5.23401 -0.597521,6.15135 5.07501,9.77007 -6.439523,7.71926 z m -44.18498,-8.45468 c 0.130489,-5.07998 3.879091,-16.12792 0.266075,-18.14099 -1.36914,3.66499 -7.446185,8.99237 -4.187399,1.48123 -1.092556,-2.72527 -5.968453,9.63461 -6.789565,5.53741 3.633928,-4.64294 -0.168472,-5.74424 -2.443836,-1.00388 -2.458251,3.04749 -10.531296,5.92604 -4.535654,0.27138 2.778952,-6.70975 -11.172116,8.10764 -5.155811,0.38741 1.718364,-3.24994 -11.081202,4.01332 -8.806082,-0.28786 5.222343,-0.77259 3.695907,-4.78413 9.826702,-5.4202 7.572802,-3.01213 17.611969,-3.31453 22.47179,-10.73049 2.654318,-5.72551 -1.215404,-4.17197 -3.452826,-0.56704 0.677518,-7.07309 -6.128029,8.41445 -4.648676,0.53952 -1.745074,2.74732 -10.575922,10.00867 -5.68833,2.18173 0.03534,-3.29381 -9.338383,10.19029 -5.441656,2.29652 2.265336,-8.28802 -5.802663,7.51585 -10.0766,4.72519 2.985432,-2.30113 4.344287,-8.13138 -0.260713,-2.85243 -2.305034,3.14232 -13.176137,5.6993 -4.750975,0.86826 4.035193,-4.95933 -12.138935,4.41516 -8.346831,-0.49503 4.977275,-2.18152 -9.880479,-1.10499 -2.246315,-3.21048 3.09727,-0.38896 9.144579,-0.92398 3.155577,-3.30196 3.064328,0.3961 17.337725,-0.64164 7.566914,-2.71989 -7.066515,-3.3731 9.606094,1.38046 8.082268,-3.48556 8.698616,1.30878 15.976191,-3.58908 23.859699,-6.23238 4.040837,-0.9549 4.355965,-11.25833 0.154546,-4.41481 -2.197503,4.37694 -1.456799,-3.9863 -3.840966,2.25577 -1.888831,3.32606 -7.938212,5.82527 -3.899731,-0.26938 -0.91955,0.65479 -9.790163,8.59249 -8.716553,4.71114 3.447201,-1.71575 3.755722,-7.26122 -0.313221,-2.43711 -2.515259,2.85382 -12.648949,6.14635 -5.695137,0.67836 -1.698309,-0.48233 -9.8593,3.51251 -7.674439,-0.63078 -10.426743,-3.19961 13.509304,-0.76277 2.533281,-4.52699 2.946678,-1.78524 15.697313,-0.67183 11.061622,-4.08729 7.447175,-0.29147 16.923767,-2.903 20.446445,-9.82877 0.583193,-6.03833 -9.07742,10.44225 -7.328339,2.20824 -1.497254,2.69307 -13.023131,8.03208 -5.95322,2.60714 1.968235,-4.99822 -7.765643,2.89733 -10.78968,1.35148 -8.230767,-0.57245 9.169108,-1.78564 0.217967,-3.5491 6.716114,-1.02384 2.301935,-1.26742 -0.847846,-3.12571 3.658043,-0.0679 12.30959,-0.003 11.270362,-2.74744 3.352832,-0.0143 10.60866,-0.19031 10.49283,-4.31327 -3.459821,2.03616 -5.14474,2.89639 -3.71743,-1.05834 -2.387051,2.74953 -10.707462,5.66293 -4.817521,0.97834 -2.833892,1.12504 -11.501358,0.18582 -3.997643,-1.2011 -3.479983,-3.4621 11.678465,-2.00106 2.906231,-4.48832 2.425786,-0.44239 14.04798,-5.65134 8.933574,-5.96967 -9.387898,2.72127 5.927894,-4.28524 0.01567,-4.79744 4.579275,-0.94151 3.122506,-8.55301 5.918755,-8.72695 1.856782,4.92289 2.885845,6.59127 6.218617,10.5272 -9.354988,0.3114 7.552674,4.4184 1.904071,5.94259 2.520935,0.74631 9.1240494,3.06954 2.365121,2.04685 -7.060458,0.33941 6.3819953,1.95328 5.7070299,3.16875 -4.3129149,-0.65379 -2.3509921,2.0908 -3.7616941,2.25521 -3.1288148,1.16633 -7.9708728,-7.31814 -6.5721878,-1.06875 -6.316238,-6.00797 -2.24638,3.86906 2.642477,2.11159 3.426864,1.83851 10.819682,0.96011 12.2958049,2.70796 -7.2938851,1.42048 -1.1037809,2.74078 2.47551962,3.10945 -2.89048572,1.69566 -11.43120252,-1.00176 -4.08727972,2.96099 -3.211654,2.86368 -12.4475308,-7.28412 -8.8855128,0.0718 -6.320723,-0.5018 6.5870331,3.60411 8.5666645,4.34919 2.3780293,0.64506 13.3853464,0.64203 6.1944784,3.08602 2.8695484,0.77279 13.7907301,0.44185 4.6442617,2.67068 3.5223544,4.79607 -12.4535717,-2.4978 -4.3931556,3.04767 0.7143326,4.7802 -13.848525,-9.2625 -7.5358391,-0.54533 -0.6110978,2.36563 -7.8304779,-2.99077 -9.2009879,-5.17143 -1.916741,-4.22011 -1.718404,3.69289 -3.672775,-1.70456 -3.660412,-7.15937 -2.216491,6.49284 3.081964,4.79118 6.2791368,4.07459 13.2181238,5.9311 20.7351423,6.26614 5.9342867,-0.0669 -5.72095185,2.29202 0.9749858,2.89385 3.2349389,-0.034 13.3770909,-1.81304 5.7179349,1.86849 2.519633,0.86249 14.309779,-0.41694 5.540449,2.2414 -5.846491,1.25167 6.579821,2.34164 -0.716695,2.83995 -2.769257,0.19794 -11.8505904,-3.56085 -5.409562,0.91459 6.625286,4.45421 -8.7779477,-0.0583 -9.5153243,-3.95085 -6.4674032,-4.63342 6.7616796,9.58867 -1.8364694,3.61522 -2.262007,-1.24016 -8.6974551,-10.55794 -5.7951138,-2.96686 3.97391375,7.72704 -9.5996015,-9.30608 -7.4879675,-2.20574 -2.18568,-1.63776 -8.253668,-10.14324 -5.914879,-2.01318 4.177147,6.23758 12.3651004,7.99009 19.1068622,10.30175 6.8441232,1.39216 15.0206528,3.04687 21.0645098,4.23826 -9.833471,3.05887 12.646203,1.05517 2.963654,3.94213 -3.440519,1.94405 -16.951286,-3.51179 -8.596143,2.68475 8.888163,3.67311 -5.276215,2.92936 -7.6309778,-0.54536 -2.5228974,-2.92736 -6.9913179,-4.33309 -3.2038436,0.66061 2.9528121,2.15682 4.7793844,6.31059 -0.2453499,3.13663 -3.3640292,-1.18782 -10.6307036,-13.43579 -7.0491706,-3.59567 1.30914195,6.24259 -6.9329519,-4.68864 -7.9528085,-6.74909 -0.8387126,2.3297 2.9560018,8.95115 -1.1543886,3.9063 -1.066075,-2.97177 -4.138526,-11.24192 -3.624222,-3.27641 -1.912014,1.56911 -4.704264,-12.59059 -4.802866,-3.61893 0.0079,6.03459 8.486413,9.78285 9.9821424,13.49933 -3.1749034,-0.92243 -7.6509874,-4.13242 -4.3790044,1.05834 -3.144562,-0.57637 -6.116958,-9.01689 -5.344672,-1.37701 3.419152,6.91653 -5.015517,12.42863 -8.170116,13.41584 z m 11.796579,-58.67135 c -1.67005,-4.58224 -5.467142,-3.69533 -1.088999,-0.043 -0.03882,0.15605 1.16467,0.67055 1.088999,0.043 z m -10.559719,-15.02295 c 3.717576,-3.24108 -2.261233,-2.20625 -0.780225,0.24219 z m 6.959206,-2.76771 c -2.95618,-7.21793 -4.99862,-0.27894 0,0 z m 38.43786,71.54801 c -2.271065,-7.56809 7.617315,1.08755 0,0 z"
         id="path350" /></g><rect
       style="fill:none;stroke-width:0.264583"
       id="rect4654"
       width="191.09966"
       height="64.714745"
       x="25.581245"
       y="138.26265"
       ry="0.14576843" /></g></svg>
